# xmcd CD database file
#
# Track frame offsets:
#	150
#	3896
#	21934
#	40046
#
# Disc length: 1039 seconds
#
# Revision: 0
# Processed by: cddbd v1.5.1PL2 Copyright (c) Steve Scherf et al.
# Submitted via: CDex 1.51
#
DISCID=20040d04
DTITLE=友坂鈴夏（CV：佐藤美佳子） - ラムネ Character Collection Vol.3 友坂鈴夏
DYEAR=2006
DGENRE=Anime
TTITLE0=モノローグ「友坂鈴夏」
TTITLE1=夢いっぱいの箒星
TTITLE2=夢いっぱいの箒星〜Original Karaoke〜
TTITLE3=ラムネ・アフターストーリー「友坂鈴夏」
EXTD=YEAR: 2006
EXTT0=
EXTT1=
EXTT2=
EXTT3=
PLAYORDER=
